<?xml version="1.0" encoding="UTF-8"?>
<svg width="800" height="440" viewBox="0 0 800 440" fill="none" xmlns="http://www.w3.org/2000/svg">
  <!-- Background -->
  <rect width="800" height="440" rx="8" fill="#F9FAFB"/>
  
  <!-- Header -->
  <rect y="0" width="800" height="60" rx="8" fill="#FFFFFF"/>
  <rect x="24" y="20" width="180" height="24" rx="4" fill="#1F2937"/>
  <rect x="650" y="20" width="120" height="30" rx="15" fill="#2563EB"/>
  
  <!-- Stats Cards -->
  <rect x="24" y="80" width="240" height="80" rx="8" fill="#FFFFFF"/>
  <rect x="40" y="96" width="80" height="16" rx="4" fill="#E5E7EB"/>
  <rect x="40" y="124" width="48" height="24" rx="4" fill="#1F2937"/>
  
  <rect x="280" y="80" width="240" height="80" rx="8" fill="#FFFFFF"/>
  <rect x="296" y="96" width="80" height="16" rx="4" fill="#E5E7EB"/>
  <rect x="296" y="124" width="48" height="24" rx="4" fill="#10B981"/>
  
  <rect x="536" y="80" width="240" height="80" rx="8" fill="#FFFFFF"/>
  <rect x="552" y="96" width="80" height="16" rx="4" fill="#E5E7EB"/>
  <rect x="552" y="124" width="48" height="24" rx="4" fill="#F59E0B"/>
  
  <!-- Document List -->
  <rect x="24" y="180" width="300" height="240" rx="8" fill="#FFFFFF"/>
  <rect x="40" y="196" width="120" height="20" rx="4" fill="#1F2937"/>
  <rect x="40" y="226" width="268" height="32" rx="4" fill="#F3F4F6"/>
  
  <rect x="40" y="270" width="268" height="40" rx="4" fill="#F9FAFB"/>
  <rect x="50" y="284" width="160" height="12" rx="2" fill="#6B7280"/>
  <rect x="240" y="284" width="48" height="12" rx="2" fill="#6B7280"/>
  
  <rect x="40" y="320" width="268" height="40" rx="4" fill="#F9FAFB"/>
  <rect x="50" y="334" width="160" height="12" rx="2" fill="#6B7280"/>
  <rect x="240" y="334" width="48" height="12" rx="2" fill="#6B7280"/>
  
  <rect x="40" y="370" width="268" height="40" rx="4" fill="#F9FAFB"/>
  <rect x="50" y="384" width="160" height="12" rx="2" fill="#6B7280"/>
  <rect x="240" y="384" width="48" height="12" rx="2" fill="#6B7280"/>
  
  <!-- Document Preview -->
  <rect x="340" y="180" width="436" height="240" rx="8" fill="#FFFFFF"/>
  <rect x="356" y="196" width="200" height="20" rx="4" fill="#1F2937"/>
  
  <rect x="376" y="236" width="364" height="164" rx="4" fill="#F3F4F6"/>
  
  <!-- PDF Preview Rectangle -->
  <rect x="426" y="256" width="264" height="124" rx="2" fill="#FFFFFF" stroke="#E5E7EB" stroke-width="1"/>
  <rect x="446" y="276" width="224" height="8" rx="2" fill="#E5E7EB"/>
  <rect x="446" y="294" width="224" height="8" rx="2" fill="#E5E7EB"/>
  <rect x="446" y="312" width="224" height="8" rx="2" fill="#E5E7EB"/>
  <rect x="446" y="330" width="224" height="8" rx="2" fill="#E5E7EB"/>
  <rect x="446" y="348" width="150" height="8" rx="2" fill="#E5E7EB"/>
</svg>