<?xml version="1.0" encoding="UTF-8"?>
<svg width="800" height="440" viewBox="0 0 800 440" fill="none" xmlns="http://www.w3.org/2000/svg">
  <!-- Background -->
  <rect width="800" height="440" rx="8" fill="#F9FAFB"/>
  
  <!-- Header -->
  <rect y="0" width="800" height="60" rx="8" fill="#FFFFFF"/>
  <rect x="24" y="20" width="180" height="24" rx="4" fill="#1F2937"/>
  <rect x="650" y="20" width="120" height="30" rx="15" fill="#2563EB"/>
  
  <!-- Template Cards -->
  <rect x="24" y="100" width="240" height="160" rx="8" fill="#FFFFFF"/>
  <rect x="40" y="116" width="120" height="20" rx="4" fill="#1F2937"/>
  <rect x="40" y="144" width="200" height="12" rx="2" fill="#E5E7EB"/>
  <rect x="40" y="164" width="160" height="12" rx="2" fill="#E5E7EB"/>
  <rect x="40" y="196" width="80" height="24" rx="12" fill="#EFF6FF"/>
  <rect x="128" y="196" width="80" height="24" rx="12" fill="#EFF6FF"/>
  
  <rect x="280" y="100" width="240" height="160" rx="8" fill="#FFFFFF"/>
  <rect x="296" y="116" width="120" height="20" rx="4" fill="#1F2937"/>
  <rect x="296" y="144" width="200" height="12" rx="2" fill="#E5E7EB"/>
  <rect x="296" y="164" width="160" height="12" rx="2" fill="#E5E7EB"/>
  <rect x="296" y="196" width="80" height="24" rx="12" fill="#EFF6FF"/>
  <rect x="384" y="196" width="80" height="24" rx="12" fill="#EFF6FF"/>
  
  <rect x="536" y="100" width="240" height="160" rx="8" fill="#FFFFFF"/>
  <rect x="552" y="116" width="120" height="20" rx="4" fill="#1F2937"/>
  <rect x="552" y="144" width="200" height="12" rx="2" fill="#E5E7EB"/>
  <rect x="552" y="164" width="160" height="12" rx="2" fill="#E5E7EB"/>
  <rect x="552" y="196" width="80" height="24" rx="12" fill="#EFF6FF"/>
  <rect x="640" y="196" width="80" height="24" rx="12" fill="#EFF6FF"/>
  
  <rect x="24" y="276" width="240" height="160" rx="8" fill="#FFFFFF"/>
  <rect x="40" y="292" width="120" height="20" rx="4" fill="#1F2937"/>
  <rect x="40" y="320" width="200" height="12" rx="2" fill="#E5E7EB"/>
  <rect x="40" y="340" width="160" height="12" rx="2" fill="#E5E7EB"/>
  <rect x="40" y="372" width="80" height="24" rx="12" fill="#EFF6FF"/>
  <rect x="128" y="372" width="80" height="24" rx="12" fill="#EFF6FF"/>
  
  <rect x="280" y="276" width="240" height="160" rx="8" fill="#FFFFFF"/>
  <rect x="296" y="292" width="120" height="20" rx="4" fill="#1F2937"/>
  <rect x="296" y="320" width="200" height="12" rx="2" fill="#E5E7EB"/>
  <rect x="296" y="340" width="160" height="12" rx="2" fill="#E5E7EB"/>
  <rect x="296" y="372" width="80" height="24" rx="12" fill="#EFF6FF"/>
  <rect x="384" y="372" width="80" height="24" rx="12" fill="#EFF6FF"/>
  
  <!-- Add New Template Card -->
  <rect x="536" y="276" width="240" height="160" rx="8" fill="#FFFFFF" stroke="#E5E7EB" stroke-width="2" stroke-dasharray="4 4"/>
  <circle cx="656" cy="356" r="24" fill="#F3F4F6"/>
  <rect x="654" y="344" width="4" height="24" rx="2" fill="#9CA3AF"/>
  <rect x="644" y="354" width="24" height="4" rx="2" fill="#9CA3AF"/>
</svg>